Patient4_TMGait_0pt4_02_right_33_GRF.mot
version=1
nRows=39
nColumns=19
inDegrees=no
endheader
time	F1x	F1y	F1z	M1x	M1y	M1z	F2x	F2y	F2z	M2x	M2y	M2z	EC1x	EC1y	EC1z	EC2x	EC2y	EC2z
43.51	1.8937	805.2215	73.6521	-263.9988	-80.9582	881.4729	-19.3681	-24.7483	-4.8594	-3.0053	5.4519	-20.0365	-0.0592	0.0182	-0.0073	-0.0462	0.0165	0.9585
43.5232	-2.4237	792.5865	72.0423	-259.8339	-79.0567	866.7262	-12.8804	-15.4548	-3.2646	-1.5867	3.6453	-12.1427	-0.0592	0.0182	-0.0073	-0.0462	0.0165	0.9585
43.5364	-5.6576	779.2189	70.346	-255.3313	-76.8033	850.6472	-7.4224	-7.5643	-1.9135	-0.38157	2.133	-5.4249	-0.0592	0.0182	-0.0073	-0.0462	0.0165	0.9585
43.5496	-7.5656	766.0471	68.6385	-250.8	-74.2896	834.2759	-3.2955	-1.5322	-0.88786	0.5452	0.99909	-0.28173	-0.0592	0.0182	-0.0073	-0.0462	0.0165	0.9585
43.5629	-8.1883	753.8931	66.9508	-246.532	-71.5918	818.5659	-0.46173	2.6622	-0.18764	1.1972	0.23931	3.2884	-0.0592	0.0182	-0.0073	-0.0462	0.0165	0.9585
43.5761	-7.7352	743.484	65.3391	-242.7905	-68.8205	804.3683	1.2611	5.2777	0.23658	1.6102	-0.20191	5.5003	-0.0592	0.0182	-0.0073	-0.0462	0.0165	0.9585
43.5893	-6.4552	735.4109	63.8182	-239.7914	-66.0427	792.3644	2.1316	6.6489	0.45172	1.8279	-0.40113	6.6337	-0.0592	0.0182	-0.0073	-0.0462	0.0165	0.9585
43.6025	-4.5953	730.0619	62.4556	-237.6745	-63.3684	783.0101	2.395	7.1281	0.52304	1.8961	-0.42795	6.9973	-0.0592	0.0182	-0.0073	-0.0462	0.0165	0.9585
43.6157	-2.3651	727.6069	61.2973	-236.499	-60.8806	776.5213	2.2694	6.9926	0.5023	1.846	-0.34223	6.8218	-0.0592	0.0182	-0.0073	-0.0462	0.0165	0.9585
43.6289	0.090461	727.9785	60.4307	-236.2362	-58.6831	772.8596	1.9133	6.4265	0.42954	1.692	-0.18954	6.2466	-0.0592	0.0182	-0.0073	-0.0462	0.0165	0.9585
43.6421	2.6716	730.8785	59.8946	-236.7791	-56.8219	771.7464	1.4484	5.5474	0.33092	1.4388	-0.00066017	5.3552	-0.0592	0.0182	-0.0073	-0.0462	0.0165	0.9585
43.6554	5.3074	735.8093	59.7352	-237.9512	-55.3484	772.7027	0.97325	4.4021	0.22603	1.0802	0.19737	4.1611	-0.0592	0.0182	-0.0073	-0.0462	0.0165	0.9585
43.6686	7.9538	742.1053	59.946	-239.5199	-54.2608	775.0753	0.53972	3.0033	0.1298	0.60828	0.38313	2.6572	-0.0592	0.0182	-0.0073	-0.0462	0.0165	0.9585
43.6818	10.5753	748.9498	60.5058	-241.2055	-53.5479	778.0718	0.22916	1.3765	0.054374	0.027354	0.51967	0.85414	-0.0592	0.0182	-0.0073	-0.0462	0.0165	0.9585
43.695	13.1308	755.4232	61.3514	-242.701	-53.1616	780.7997	0.12618	-0.36884	0.01532	-0.62345	0.55356	-1.1232	-0.0592	0.0182	-0.0073	-0.0462	0.0165	0.9585
43.7082	15.5674	760.5452	62.4207	-243.6815	-53.0573	782.3171	0.33841	-2.0213	0.034725	-1.2567	0.41244	-3.0227	-0.0592	0.0182	-0.0073	-0.0462	0.0165	0.9585
43.7214	17.8241	763.3813	63.6254	-243.8432	-53.1692	781.7285	1.0139	-3.1615	0.13435	-1.7027	0.011673	-4.3422	-0.0592	0.0182	-0.0073	-0.0462	0.0165	0.9585
43.7346	19.8498	763.276	64.8862	-242.9811	-53.4432	778.4199	2.3311	-3.1133	0.34324	-1.6894	-0.75427	-4.2761	-0.0592	0.0182	-0.0073	-0.0462	0.0165	0.9585
43.7479	21.619	760.0588	66.1206	-241.0552	-53.8111	772.2553	4.4622	-0.93834	0.69667	-0.83601	-1.9993	-1.7172	-0.0592	0.0182	-0.0073	-0.0462	0.0165	0.9585
43.7611	23.1579	754.0628	67.2914	-238.1924	-54.2298	763.5877	7.5204	4.5983	1.2272	1.3534	-3.8056	4.7957	-0.0592	0.0182	-0.0073	-0.0462	0.0165	0.9585
43.7743	24.517	745.9448	68.3832	-234.6265	-54.6654	753.0743	11.5057	14.9274	1.9507	5.4509	-6.1827	16.9547	-0.0592	0.0182	-0.0073	-0.0462	0.0165	0.9585
43.7875	25.7576	736.3915	69.4004	-230.5967	-55.1034	741.3893	16.1497	31.4559	2.8506	12.0193	-8.9971	36.4331	-0.0592	0.0182	-0.0073	-0.0462	0.0165	0.9585
43.8007	26.9324	725.7754	70.2866	-226.2424	-55.475	728.8906	20.8088	55.1753	3.849	21.4582	-11.8909	64.4082	-0.0592	0.0182	-0.0073	-0.0462	0.0165	0.9585
43.8139	28.0563	713.9974	70.9214	-221.5542	-55.6613	715.4767	24.2879	86.0698	4.7737	33.7627	-14.1752	100.8665	-0.0592	0.0182	-0.0073	-0.0462	0.0165	0.9585
43.8271	29.0918	700.4891	71.1066	-216.3776	-55.4877	700.587	24.7409	122.3046	5.3098	48.2058	-14.7591	143.6571	-0.0592	0.0182	-0.0073	-0.0462	0.0165	0.9585
43.8404	29.9505	684.425	70.6484	-210.4769	-54.7988	683.4147	20.9947	160.4205	5.0872	63.3831	-12.7866	188.8207	-0.0592	0.0182	-0.0073	-0.0462	0.0165	0.9585
43.8536	30.5684	665.1659	69.3876	-203.6776	-53.4658	663.3105	13.7807	195.8652	4.0957	77.4608	-8.5683	231.0543	-0.0592	0.0182	-0.0073	-0.0462	0.0165	0.9585
43.8668	30.9544	642.5557	67.3486	-195.9554	-51.5086	640.0731	5.2448	224.777	2.3453	88.9037	-3.0153	265.6224	-0.0592	0.0182	-0.0073	-0.0462	0.0165	0.9585
43.88	31.2068	616.9428	64.6651	-187.4397	-49.0259	613.9714	-3.0862	246.6616	0.14993	97.5091	2.9181	291.7655	-0.0592	0.0182	-0.0073	-0.0462	0.0165	0.9585
43.8932	31.4494	588.844	61.5281	-178.3063	-46.1594	585.4473	-10.4721	264.1191	-2.2965	104.303	8.7341	312.4286	-0.0592	0.0182	-0.0073	-0.0462	0.0165	0.9585
43.9064	31.7378	558.5879	58	-168.6704	-42.9481	554.8119	-16.731	280.8735	-4.8625	110.7574	14.2306	331.9566	-0.0592	0.0182	-0.0073	-0.0462	0.0165	0.9585
43.9196	32.0494	526.1991	54.0239	-158.5494	-39.3407	522.1092	-21.8981	300.2126	-7.537	118.172	19.4135	354.1582	-0.0592	0.0182	-0.0073	-0.0462	0.0165	0.9585
43.9329	32.2503	491.4461	49.4569	-147.8726	-35.2342	487.1509	-25.9803	324.4637	-10.3982	127.4468	24.378	381.6529	-0.0592	0.0182	-0.0073	-0.0462	0.0165	0.9585
43.9461	32.1256	453.8965	44.2544	-136.4952	-30.6394	449.5464	-29.0174	355.0162	-13.6477	139.0852	29.3596	415.9523	-0.0592	0.0182	-0.0073	-0.0462	0.0165	0.9585
43.9593	31.3977	413.1027	38.5056	-124.2533	-25.7109	408.8889	-31.0999	392.4042	-17.6065	153.232	34.7402	457.601	-0.0592	0.0182	-0.0073	-0.0462	0.0165	0.9585
43.9725	29.7807	368.8265	32.4579	-111.0333	-20.7525	364.9624	-32.3565	436.1914	-22.5672	169.6422	40.8773	506.0735	-0.0592	0.0182	-0.0073	-0.0462	0.0165	0.9585
43.9857	27.049	321.2836	26.4354	-96.8551	-16.1246	317.9656	-32.9221	484.8259	-28.8329	187.6406	48.1253	559.582	-0.0592	0.0182	-0.0073	-0.0462	0.0165	0.9585
43.9989	23.0916	271.4379	20.7863	-81.9665	-12.1831	268.8302	-32.9997	536.0103	-36.4683	206.2934	56.5996	615.4959	-0.0592	0.0182	-0.0073	-0.0462	0.0165	0.9585
44.0121	18.0449	221.0874	15.8024	-66.8809	-9.1644	219.281	-32.7546	587.3071	-45.285	224.6571	66.1144	671.0411	-0.0592	0.0182	-0.0073	-0.0462	0.0165	0.9585
